# xmcd
#
# Track frame offsets:
#	150
#	31271
#	57917
#	95421
#	121533
#	153177
#	188679
#	228140
#	267206
#	281276
#
# Disc length: 4121 seconds
#
# Revision: 0
# Processed by: cddbd v1.5.2PL0 Copyright (c) Steve Scherf et al.
# Submitted via: audiograbber 1.83.01
#
DISCID=6e10170a
DTITLE=Grateful Dead - 93-04-05 Nassau Veterans Memorial Coliseum, Uniondale NY
DYEAR=1900
DGENRE=
TTITLE0=Touch Of Grey
TTITLE1=Greatest Story Ever Told
TTITLE2=Lazy River Road
TTITLE3=Just Like Tom Thumb's Blues
TTITLE4=Black Throated Wind
TTITLE5=Tennessee Jed
TTITLE6=The Music Never Stopped
TTITLE7=Deal
TTITLE8=I Fought The Law
TTITLE9=Way To Go Home
EXTD=
EXTT0=
EXTT1=
EXTT2=
EXTT3=
EXTT4=
EXTT5=
EXTT6=
EXTT7=
EXTT8=
EXTT9=
PLAYORDER=
